inDegrees=no
num_controls=7
num_derivatives=13
num_iterations=171
num_multipliers=7
num_parameters=0
num_slacks=7
num_states=26
objective=4.412035
objective_accelerations=0.227647
objective_balance=0.045155
objective_effort=0.311665
objective_height=3.753988
objective_ligament=0.073580
solver_duration=1742.986192
status=Solve_Succeeded
success=true
DataType=double
version=3
OpenSimVersion=4.4-2022-07-23-0e9fedc
endheader
time	/jointset/ground_pelvis/pelvis_tilt/value	/jointset/ground_pelvis/pelvis_tx/value	/jointset/ground_pelvis/pelvis_ty/value	/jointset/hip_l/hip_flexion_l/value	/jointset/hip_l/hip_adduction_l/value	/jointset/hip_l/hip_rotation_l/value	/jointset/back/lumbar_extension/value	/jointset/patellofemoral_l/patellar_flexion_l/value	/jointset/knee_l/knee_flexion_l/value	/jointset/knee_l/knee_adduction_l/value	/jointset/knee_l/knee_rotation_l/value	/jointset/ankle_l/ankle_angle_l/value	/jointset/subtalar_l/subtalar_angle_l/value	/jointset/ground_pelvis/pelvis_tilt/speed	/jointset/ground_pelvis/pelvis_tx/speed	/jointset/ground_pelvis/pelvis_ty/speed	/jointset/hip_l/hip_flexion_l/speed	/jointset/hip_l/hip_adduction_l/speed	/jointset/hip_l/hip_rotation_l/speed	/jointset/back/lumbar_extension/speed	/jointset/patellofemoral_l/patellar_flexion_l/speed	/jointset/knee_l/knee_flexion_l/speed	/jointset/knee_l/knee_adduction_l/speed	/jointset/knee_l/knee_rotation_l/speed	/jointset/ankle_l/ankle_angle_l/speed	/jointset/subtalar_l/subtalar_angle_l/speed	/forceset/tau_hip_flexion_l	/forceset/tau_hip_adduction_l	/forceset/tau_hip_rotation_l	/forceset/tau_knee_flexion_l	/forceset/tau_ankle_angle_l	/forceset/tau_subtalar_angle_l	/forceset/tau_lumbar_extension	lambda_cid13_p0	lambda_cid13_p1	lambda_cid13_p2	lambda_cid13_p3	lambda_cid13_p4	lambda_cid13_p5	lambda_cid14_p0	/jointset/ground_pelvis/pelvis_tilt/accel	/jointset/ground_pelvis/pelvis_tx/accel	/jointset/ground_pelvis/pelvis_ty/accel	/jointset/hip_l/hip_flexion_l/accel	/jointset/hip_l/hip_adduction_l/accel	/jointset/hip_l/hip_rotation_l/accel	/jointset/back/lumbar_extension/accel	/jointset/patellofemoral_l/patellar_flexion_l/accel	/jointset/knee_l/knee_flexion_l/accel	/jointset/knee_l/knee_adduction_l/accel	/jointset/knee_l/knee_rotation_l/accel	/jointset/ankle_l/ankle_angle_l/accel	/jointset/subtalar_l/subtalar_angle_l/accel	gamma_cid13_p0	gamma_cid13_p1	gamma_cid13_p2	gamma_cid13_p3	gamma_cid13_p4	gamma_cid13_p5	gamma_cid14_p0
0.5	0.07058271391164413	0.04032833303534146	0.8665698137048043	0.5293605875009193	-0.3305953891211025	-0.128788275172331	-0.7475139890120018	0.7814732870545839	0.7814732870547573	-0.1177153092862486	-0.174532564463082	0.2397638692106305	0.04822139972689204	0.3085304634057409	-0.01051565697661785	-0.2102384350564426	0.5366277249290782	-0.0682768334134775	0.4301234491167964	-0.852678727647162	1.408123831466326	1.408123831466356	0.112780972243634	-6.628273749491399e-06	0.6624994768875997	0.1797306356037997	-0.143625381101573	0.03526241113073807	-0.004720266261824837	-0.2490187714798416	-0.008333662932015746	0.03884742301632745	0.2470760457089015	-46.22966135289442	-11.97259562711827	5.104639651371289	2.577076119606067	-697.9205006445565	-78.92803839682682	-15.15183202602811	-0.08486752681500109	0.2041250993907787	-0.1680999950398601	-0.7770321418986234	0.1353307340351912	-0.4266063277789136	1.18478448472179	-1.145610814775267	-1.145610814775219	-0.2711692159364461	0.009424737584918328	-0.3631278221258967	0.1726374200879231	-1.112055483009304e-08	-3.51587317537515e-07	8.196126425404308e-09	-5.389070514870459e-08	-1.991994435376869e-08	-1.907102589175639e-07	-2.560436167317641e-08
0.51	0.07366321809857894	0.04023336372273177	0.8644595057939566	0.5346872434773842	-0.3312714762683687	-0.1245094116574802	-0.755980328494215	0.7954951026067293	0.7954951026067771	-0.116600991872949	-0.1745326643389529	0.2463696768904315	0.05002689976249398	0.3075294850083501	-0.008479638180375641	-0.2117715229551836	0.5286101988204449	-0.06694247793903227	0.4255973966702661	-0.8404838514433887	1.396024069530108	1.396024069530124	0.1100717367084693	-1.30376432205933e-05	0.6585656114520086	0.1813346834633375	-0.1459927152930565	0.03645789705063269	-0.004824022375215046	-0.2522632681144837	-0.0119956885902946	0.0390208453883308	0.2506978987101094	-47.52719065636729	-11.80195614785279	5.055996369272219	3.070293955510295	-700.4826791786943	-78.84535679788603	-14.64130197520009	-0.1138449270288779	0.2031139674730761	-0.1381716131802696	-0.8281010581922993	0.1322439624406779	-0.4734033739125867	1.25263679077823	-1.274436309157898	-1.274436309159991	-0.2724680767040262	-0.005641635206683432	-0.422994023987905	0.1491434954807359	-1.999185924036433e-09	-3.170365817849074e-07	-3.790285045146303e-08	-5.458094790365203e-08	-7.779055469925613e-09	-1.489782908536737e-07	-1.814462227488569e-08
0.52	0.07673248611536895	0.04015870933763127	0.8623354153189439	0.5399309265501895	-0.3319342686592468	-0.1202773684012592	-0.7643215596938748	0.8093894650542756	0.8093894650542207	-0.1155141002858324	-0.1745328218807756	0.2529332502919308	0.05184741128200836	0.3062832293778626	-0.006452671474779158	-0.2129949478894621	0.5200331441979629	-0.06561788213289915	0.4207593973908217	-0.827657071136695	1.382633210549377	1.382633210549379	0.1072958069973876	-1.816145243233733e-05	0.6540526212279308	0.1827329323866345	-0.148360049484548	0.03765338297046461	-0.004927778488233961	-0.2555077647491531	-0.01565771424859958	0.03919426776023647	0.2543197517113288	-48.8280320164755	-11.62980093047937	5.006042818543347	3.551943483045335	-703.1029268780568	-78.77320513628047	-14.12837873124382	-0.1339229734344558	0.2023146812617014	-0.1061674021473663	-0.8889378446683467	0.133378800372791	-0.4889956943617246	1.311165305305742	-1.403830223677921	-1.403830223677934	-0.284508051119881	0.009681849636810978	-0.4789527798232209	0.1314776328397882	6.339647693556008e-10	-2.685297456994564e-07	-3.994871200516037e-08	-4.962075506697117e-08	-2.790911818657401e-09	-1.230192468069062e-07	-1.451077791838583e-08
0.53	0.07978808065758648	0.04010426950734569	0.86020065300403	0.5450861270133028	-0.3325838502214297	-0.1160951097908805	-0.7725314381284425	0.823143618136514	0.8231436181364437	-0.1144552842313966	-0.1745329038732407	0.2594488834109178	0.0536809022153639	0.304798211120914	-0.004437667409760751	-0.2139037669640192	0.5109160899240588	-0.06430108876847498	0.4156429426723368	-0.8142230130217533	1.367992841147006	1.367992841146926	0.1044588520523868	1.406633107269294e-06	0.6489832135301811	0.1839294686944538	-0.1505988413824866	0.03883748563805061	-0.005050614037561717	-0.2588397387821265	-0.0191830409939699	0.03930881691753687	0.2578357221080849	-50.08722143968306	-11.43244844555753	4.944165723340735	4.021311389119554	-705.702860252877	-78.66483908006765	-13.61371579815111	-0.1614106925127023	0.2007279421606916	-0.0751769748877424	-0.9367162089736976	0.130460126699996	-0.5303905906574046	1.373866477603234	-1.52482249070777	-1.524822490720041	-0.2846088248750872	-0.001972668133783606	-0.5345607056187569	0.108416969275277	1.650405895121137e-09	-2.237009672769722e-07	-3.302418646761205e-08	-4.394423367291e-08	-3.167857912012132e-10	-1.024733048516299e-07	-1.214957380759361e-08
0.54	0.08282770112908722	0.04006990665231837	0.8580584149354153	0.5501474315356285	-0.3332203377455463	-0.1119654997736885	-0.7806041078992562	0.8367452310862823	0.8367452310862099	-0.1134251016481071	-0.1745328035761285	0.2659110972647512	0.05552529357969953	0.3030884152364711	-0.002437276423128683	-0.2144900986296608	0.5012539560412785	-0.06299907451511681	0.4102296787512187	-0.8002153383862209	1.352125184056995	1.352125184056833	0.1015691127599771	1.829647279421636e-05	0.6433687681977172	0.1849130185831634	-0.1528376332804004	0.04002158830560152	-0.00517344958668554	-0.2621717128151046	-0.02270836773935427	0.03942336607478295	0.2613516925048687	-51.35096292842392	-11.23308689544485	4.880584179320053	4.483159747431753	-708.3753668795887	-78.56724290585879	-13.09807600641245	-0.1788784989334737	0.1993920655845168	-0.0416699203642534	-0.9979537664435676	0.1304229781595863	-0.5483575348883567	1.425888609423733	-1.649287761205902	-1.649287761205906	-0.295064920601699	0.009146200466235512	-0.5879603067659606	0.08888034901784353	8.781470737254191e-10	-1.829415292475577e-07	-1.617497733974927e-08	-3.747517855578974e-08	-6.241260709413376e-10	-8.791632691247132e-08	-1.11963972026907e-08
